<svg width="330" height="79" viewBox="0 0 330 79" fill="none" xmlns="http://www.w3.org/2000/svg">
<path d="M4.01493 53C0.814932 56.2 -0.58956 59.5 0.228619 62.5C1.0468 65.5 2.17924 69.0271 10.7286 71C19.278 72.9729 25.5149 72 29.2286 72C32.9423 72 47.2286 68.5 55.2286 67.5C66.7286 66.0625 82.0366 67.0353 87.0149 67.5C97.7286 68.5 113.244 71.1757 119.515 72C134.729 74 135.229 74 153.229 76.5C171.229 79 203.229 78 221.229 76.5C239.229 75 241.401 72.3608 245.515 70C254.229 65 256.493 62.3825 259.729 61.5C265.229 60 272.895 59.8333 275.229 60C308.562 60.1667 367.915 57.6 375.515 58C383.115 58.4 398.682 56.1667 405.515 55C409.515 54 419.015 51 425.015 47C432.515 42 431.015 40 430.515 36.5C430.115 33.7 423.682 30 420.515 28.5C412.682 25.1667 395.015 18 387.015 16C379.015 14 365.348 13.8333 359.515 14C351.848 13.6667 334.215 12.8 325.015 12C313.515 11 301.015 6.5 294.515 5C280.5 1.76579 263 1 238.5 0.5H214.5C202 0.5 185.315 3.4 178.515 5C171.715 6.6 152.682 14.3333 144.015 18L121.515 28C117.015 29.6667 105.315 33.6 94.5149 36C81.0149 39 53.5149 40 50.0149 40C46.5149 40 31.0149 41 24.0149 42.5C17.0149 44 8.01493 49 4.01493 53Z" fill="#A0B480"/>
</svg>
