<svg width="393" height="852" viewBox="0 0 393 852" fill="none" xmlns="http://www.w3.org/2000/svg">
<g clip-path="url(#clip0_225_494)">
<rect width="393" height="852" fill="url(#paint0_linear_225_494)"/>
<path d="M67.0149 395C63.8149 398.2 62.4104 401.5 63.2286 404.5C64.0468 407.5 65.1792 411.027 73.7286 413C82.278 414.973 88.5149 414 92.2286 414C95.9423 414 110.229 410.5 118.229 409.5C129.729 408.062 145.037 409.035 150.015 409.5C160.729 410.5 176.244 413.176 182.515 414C197.729 416 198.229 416 216.229 418.5C234.229 421 266.229 420 284.229 418.5C302.229 417 304.401 414.361 308.515 412C317.229 407 319.493 404.383 322.729 403.5C328.229 402 335.895 401.833 338.229 402C371.562 402.167 430.915 399.6 438.515 400C446.115 400.4 461.682 398.167 468.515 397C472.515 396 482.015 393 488.015 389C495.515 384 494.015 382 493.515 378.5C493.115 375.7 486.682 372 483.515 370.5C475.682 367.167 458.015 360 450.015 358C442.015 356 428.348 355.833 422.515 356C414.848 355.667 397.215 354.8 388.015 354C376.515 353 364.015 348.5 357.515 347C352.315 345.8 330.348 345.167 320.015 345H261.015C257.348 345 248.315 345.4 241.515 347C234.715 348.6 215.682 356.333 207.015 360L184.515 370C180.015 371.667 168.315 375.6 157.515 378C144.015 381 116.515 382 113.015 382C109.515 382 94.0149 383 87.0149 384.5C80.0149 386 71.0149 391 67.0149 395Z" fill="#899A6E"/>
<path d="M67.0149 391C63.8149 394.2 62.4104 397.5 63.2286 400.5C64.0468 403.5 65.1792 407.027 73.7286 409C82.278 410.973 88.5149 410 92.2286 410C95.9423 410 110.229 406.5 118.229 405.5C129.729 404.062 145.037 405.035 150.015 405.5C160.729 406.5 176.244 409.176 182.515 410C197.729 412 198.229 412 216.229 414.5C234.229 417 266.229 416 284.229 414.5C302.229 413 304.401 410.361 308.515 408C317.229 403 319.493 400.383 322.729 399.5C328.229 398 335.895 397.833 338.229 398C371.562 398.167 430.915 395.6 438.515 396C446.115 396.4 461.682 394.167 468.515 393C472.515 392 482.015 389 488.015 385C495.515 380 494.015 378 493.515 374.5C493.115 371.7 486.682 368 483.515 366.5C475.682 363.167 458.015 356 450.015 354C442.015 352 428.348 351.833 422.515 352C414.848 351.667 397.215 350.8 388.015 350C376.515 349 364.015 344.5 357.515 343C343.5 339.766 326 339 301.5 338.5H277.5C265 338.5 248.315 341.4 241.515 343C234.715 344.6 215.682 352.333 207.015 356L184.515 366C180.015 367.667 168.315 371.6 157.515 374C144.015 377 116.515 378 113.015 378C109.515 378 94.0149 379 87.0149 380.5C80.0149 382 71.0149 387 67.0149 391Z" fill="#A0B480"/>
<g clip-path="url(#clip1_225_494)">
<circle cx="30.5" cy="29.5" r="62.5" fill="white" fill-opacity="0.6"/>
<ellipse cx="101" cy="26" rx="48" ry="45" fill="white" fill-opacity="0.6"/>
<ellipse cx="167" cy="26.5" rx="38" ry="32.5" fill="white" fill-opacity="0.6"/>
<circle cx="376.5" cy="43.5" r="62.5" fill="white" fill-opacity="0.6"/>
<circle cx="297.5" cy="37.5" r="43.5" fill="white" fill-opacity="0.6"/>
<ellipse cx="233.5" cy="44.5" rx="47.5" ry="44.5" fill="white" fill-opacity="0.6"/>
<circle cx="31.5" cy="11.5" r="62.5" fill="white"/>
<ellipse cx="101" cy="11" rx="48" ry="45" fill="white"/>
<ellipse cx="167" cy="11.5" rx="38" ry="32.5" fill="white"/>
<circle cx="376.5" cy="28.5" r="62.5" fill="white"/>
<circle cx="297.5" cy="22.5" r="43.5" fill="white"/>
<ellipse cx="233.5" cy="29.5" rx="47.5" ry="44.5" fill="white"/>
</g>
<rect y="734" width="393" height="118" fill="url(#paint1_linear_225_494)"/>
</g>
<defs>
<linearGradient id="paint0_linear_225_494" x1="196.5" y1="0" x2="196.5" y2="852" gradientUnits="userSpaceOnUse">
<stop stop-color="#CDE2F5"/>
<stop offset="0.632793" stop-color="white"/>
</linearGradient>
<linearGradient id="paint1_linear_225_494" x1="196.5" y1="734" x2="196.5" y2="852" gradientUnits="userSpaceOnUse">
<stop stop-color="white" stop-opacity="0"/>
<stop offset="1" stop-color="white"/>
</linearGradient>
<clipPath id="clip0_225_494">
<rect width="393" height="852" fill="white"/>
</clipPath>
<clipPath id="clip1_225_494">
<rect width="393" height="114" fill="white"/>
</clipPath>
</defs>
</svg>
