<svg width="236" height="112" viewBox="0 0 236 112" fill="none" xmlns="http://www.w3.org/2000/svg">
<path d="M51.7417 60.3624L6 106L65.8679 54.9933H51.7417L79.3213 35.5302L96.1381 60.3624L116.991 32.1745L125.736 28.1477L127.081 48.2819L174.168 24.7919L137.844 75.1275L166.096 53.651V61.7047L184.931 49.6242L156.679 99.9597L191.658 50.9664L217.892 40.2282L194.348 90.5638L230 28.1477L191.658 44.9262L194.348 35.5302L172.823 49.6242V42.9128L162.06 49.6242L188.967 12.0403L130.444 40.2282V20.7651L119.009 24.7919L130.444 6L120.354 12.0403L96.1381 50.9664L79.3213 26.8054L37.6156 60.3624H51.7417Z" fill="#FFD21F"/>
<path d="M65.8679 51.9933H61.1958L78.5523 39.7447L93.6542 62.0446C94.1999 62.8505 95.1026 63.3415 96.0757 63.3618C97.0487 63.382 97.9711 62.929 98.5499 62.1466L118.945 34.5775L123.033 32.6951L124.088 48.4819C124.155 49.4834 124.718 50.385 125.589 50.8843C126.459 51.3836 127.522 51.4144 128.42 50.9664L164.607 32.9141L135.411 73.372C134.541 74.5771 134.685 76.2373 135.749 77.2751C136.813 78.3128 138.476 78.4152 139.659 77.5158L163.096 59.6999V61.7047C163.096 62.8016 163.695 63.811 164.657 64.3371C165.62 64.8632 166.792 64.8221 167.716 64.2299L176.43 58.6407L154.063 98.4914C153.283 99.8811 153.725 101.638 155.071 102.492C156.416 103.347 158.194 103 159.12 101.703L193.596 53.4147L211.921 45.914L191.631 89.2927C190.949 90.7505 191.539 92.4865 192.968 93.2272C194.396 93.9678 196.155 93.4491 196.953 92.0517L232.605 29.6356C233.247 28.5123 233.096 27.1043 232.231 26.1422C231.366 25.1801 229.982 24.8807 228.797 25.3993L196.297 39.6212L197.232 36.3561C197.578 35.1511 197.137 33.8585 196.128 33.115C195.119 32.3715 193.754 32.3337 192.705 33.0203L175.823 44.0741V42.9128C175.823 41.8227 175.232 40.8185 174.278 40.2896C173.788 40.0174 173.241 39.8932 172.7 39.9153L191.406 13.7866C192.204 12.6721 192.145 11.1586 191.263 10.1095C190.381 9.06046 188.9 8.74266 187.665 9.33745L133.444 35.4534V20.7651C133.444 19.7919 132.972 18.8791 132.178 18.3167C131.384 17.7543 130.366 17.6122 129.448 17.9354L125.942 19.1701L133.007 7.55953C133.724 6.38104 133.545 4.8654 132.573 3.88639C131.602 2.90738 130.087 2.7174 128.904 3.42597L118.813 9.46624C118.404 9.7113 118.059 10.0505 117.807 10.4556L95.9976 45.5131L81.7836 25.0916C81.3084 24.4088 80.5711 23.954 79.7477 23.8358C78.9243 23.7176 78.0888 23.9466 77.4407 24.468L35.735 58.0251C34.7435 58.8228 34.3632 60.1592 34.7861 61.3594C35.209 62.5596 36.3431 63.3624 37.6156 63.3624H44.4874L3.8811 103.876C2.74066 105.014 2.70249 106.85 3.79464 108.034C4.88679 109.218 6.71931 109.328 7.94558 108.284L67.8134 57.2769C68.7703 56.4616 69.1175 55.1363 68.6831 53.9566C68.2487 52.777 67.1249 51.9933 65.8679 51.9933Z" stroke="#FFD21F" stroke-opacity="0.3" stroke-width="6" stroke-linejoin="round"/>
</svg>
