<svg width="330" height="76" viewBox="0 0 330 76" fill="none" xmlns="http://www.w3.org/2000/svg">
<path d="M4.01493 50C0.814933 53.2 -0.589559 56.5 0.228619 59.5C1.0468 62.5 2.17924 66.0271 10.7286 68C19.278 69.9729 25.5149 69 29.2286 69C32.9423 69 47.2286 65.5 55.2286 64.5C66.7286 63.0625 82.0366 64.0353 87.0149 64.5C97.7286 65.5 113.244 68.1757 119.515 69C134.729 71 135.229 71 153.229 73.5C171.229 76 203.229 75 221.229 73.5C239.229 72 241.401 69.3608 245.515 67C254.229 62 256.493 59.3825 259.729 58.5C265.229 57 272.895 56.8333 275.229 57C308.562 57.1667 367.915 54.6 375.515 55C383.115 55.4 398.682 53.1667 405.515 52C409.515 51 419.015 48 425.015 44C432.515 39 431.015 37 430.515 33.5C430.115 30.7 423.682 27 420.515 25.5C412.682 22.1667 395.015 15 387.015 13C379.015 11 365.348 10.8333 359.515 11C351.848 10.6667 334.215 9.8 325.015 9C313.515 8 301.015 3.5 294.515 2C289.315 0.8 267.348 0.166667 257.015 0H198.015C194.348 0 185.315 0.4 178.515 2C171.715 3.6 152.682 11.3333 144.015 15L121.515 25C117.015 26.6667 105.315 30.6 94.5149 33C81.0149 36 53.5149 37 50.0149 37C46.5149 37 31.0149 38 24.0149 39.5C17.0149 41 8.01493 46 4.01493 50Z" fill="#899A6E"/>
</svg>
